<svg width="28" height="28" viewBox="0 0 28 28" fill="none" xmlns="http://www.w3.org/2000/svg">
<path d="M14 0.666626C6.65334 0.666626 0.666672 6.65329 0.666672 14C0.666672 21.3466 6.65334 27.3333 14 27.3333C21.3467 27.3333 27.3333 21.3466 27.3333 14C27.3333 6.65329 21.3467 0.666626 14 0.666626ZM13 8.66663C13 8.11996 13.4533 7.66663 14 7.66663C14.5467 7.66663 15 8.11996 15 8.66663V15.3333C15 15.88 14.5467 16.3333 14 16.3333C13.4533 16.3333 13 15.88 13 15.3333V8.66663ZM15.2267 19.84C15.16 20.0133 15.0667 20.1466 14.9467 20.28C14.8133 20.4 14.6667 20.4933 14.5067 20.56C14.3467 20.6266 14.1733 20.6666 14 20.6666C13.8267 20.6666 13.6533 20.6266 13.4933 20.56C13.3333 20.4933 13.1867 20.4 13.0533 20.28C12.9333 20.1466 12.84 20.0133 12.7733 19.84C12.7049 19.6797 12.6686 19.5075 12.6667 19.3333C12.6667 19.16 12.7067 18.9866 12.7733 18.8266C12.84 18.6666 12.9333 18.52 13.0533 18.3866C13.1867 18.2666 13.3333 18.1733 13.4933 18.1066C13.818 17.9733 14.1821 17.9733 14.5067 18.1066C14.6667 18.1733 14.8133 18.2666 14.9467 18.3866C15.0667 18.52 15.16 18.6666 15.2267 18.8266C15.2933 18.9866 15.3333 19.16 15.3333 19.3333C15.3333 19.5066 15.2933 19.68 15.2267 19.84Z" fill="#FDFDFD"/>
</svg>
