<svg width="32" height="32" viewBox="0 0 32 32" fill="none" xmlns="http://www.w3.org/2000/svg">
<path d="M17.0666 22.3995H14.9333V24.5329H17.0666V22.3995Z" fill="white"/>
<path d="M22.6274 0H9.37257L7.0435 2.51807L8.55317 4.02773L10.3053 2.13333H21.6946L29.8666 10.9687V21.0313L27.7958 23.2703L29.3054 24.78L32 21.8667V10.1333L22.6274 0Z" fill="white"/>
<path d="M14.9333 7.46655V10.4078L17.0666 12.5411V7.46655H14.9333Z" fill="white"/>
<path d="M0 0V1.50847L4.14427 5.65273L0 10.1333V21.8667L9.3726 32H22.6274L26.4061 27.9146L30.4915 32H32V30.4915L1.50847 0H0ZM21.6947 29.8667H10.3053L2.13333 21.0313V10.9687L5.65387 7.16233L14.9333 16.4418V20.2667H17.0667V18.5751L24.8965 26.4049L21.6947 29.8667Z" fill="white"/>
</svg>
