<svg width="24" height="24" viewBox="0 0 24 24" fill="none" xmlns="http://www.w3.org/2000/svg">
<path d="M20.0933 7.34538L8.68 1.63871C1.01333 -2.20129 -2.13333 0.945381 1.70667 8.61205L2.86667 10.932C3.2 11.612 3.2 12.3987 2.86667 13.0787L1.70667 15.3854C-2.13333 23.052 1 26.1987 8.68 22.3587L20.0933 16.652C25.2133 14.092 25.2133 9.90538 20.0933 7.34538ZM15.7867 12.9987H8.58667C8.04 12.9987 7.58667 12.5454 7.58667 11.9987C7.58667 11.452 8.04 10.9987 8.58667 10.9987H15.7867C16.3333 10.9987 16.7867 11.452 16.7867 11.9987C16.7867 12.5454 16.3333 12.9987 15.7867 12.9987Z" fill="white"/>
</svg>
